<svg width="48" height="48" viewBox="0 0 48 48" fill="none" xmlns="http://www.w3.org/2000/svg">
<path d="M43.5971 19.5972H28.4044V4.40118C28.4045 1.97415 26.4294 0 23.9999 0C21.5704 0 19.5955 1.97415 19.5955 4.40118V19.5972H4.40444C1.97586 19.5972 0 21.573 0 23.9999C0 26.426 1.97508 28.4011 4.40444 28.4011H19.5955V43.5971C19.5955 46.0249 21.5696 47.9998 23.9999 47.9998C26.4294 47.9998 28.4044 46.0248 28.4044 43.5971V28.4011H43.5971C46.0249 28.4011 47.9998 26.426 47.9998 23.9999C48 21.573 46.0249 19.5972 43.5971 19.5972Z" fill="#CECCCC"/>
</svg>
